<svg width="900" height="500" aria-label="Діаграма." style="overflow: hidden;"><defs id="defs"><clipPath id="_ABSTRACT_RENDERER_ID_0"><rect x="161" y="96" width="579" height="309"></rect></clipPath></defs><rect x="0" y="0" width="900" height="500" stroke="none" stroke-width="0" fill="#ffffff"></rect><g><text text-anchor="start" x="161" y="70.9" font-family="Arial" font-size="14" font-weight="bold" stroke="none" stroke-width="0" fill="#000000">Trade off</text></g><g><rect x="396" y="457" width="109" height="14" stroke="none" stroke-width="0" fill-opacity="0" fill="#ffffff"></rect><g><rect x="396" y="457" width="109" height="14" stroke="none" stroke-width="0" fill-opacity="0" fill="#ffffff"></rect><g><text text-anchor="start" x="415" y="468.9" font-family="Arial" font-size="14" stroke="none" stroke-width="0" fill="#222222">Hours per Day</text></g><rect x="396" y="457" width="14" height="14" stroke="none" stroke-width="0" fill="#3366cc"></rect></g></g><g><rect x="161" y="96" width="579" height="309" stroke="none" stroke-width="0" fill-opacity="0" fill="#ffffff"></rect><g clip-path="url(#_ABSTRACT_RENDERER_ID_0)"><g><rect x="161" y="404" width="579" height="1" stroke="none" stroke-width="0" fill="#cccccc"></rect><rect x="161" y="327" width="579" height="1" stroke="none" stroke-width="0" fill="#cccccc"></rect><rect x="161" y="250" width="579" height="1" stroke="none" stroke-width="0" fill="#cccccc"></rect><rect x="161" y="173" width="579" height="1" stroke="none" stroke-width="0" fill="#cccccc"></rect><rect x="161" y="96" width="579" height="1" stroke="none" stroke-width="0" fill="#cccccc"></rect></g><g><rect x="161" y="404" width="579" height="1" stroke="none" stroke-width="0" fill="#333333"></rect></g><g><path d="M257.8333333333333,373.7C257.8333333333333,373.7,386.27777777777777,358.3,450.5,312.1C514.7222222222222,265.9,643.1666666666666,96.5,643.1666666666666,96.5" stroke="#3366cc" stroke-width="2" fill-opacity="1" fill="none"></path></g></g><g></g><g><g><text text-anchor="middle" x="257.8333333333333" y="425.9" font-family="Arial" font-size="14" stroke="none" stroke-width="0" fill="#222222">Anyone can use</text></g><g><text text-anchor="middle" x="450.5" y="425.9" font-family="Arial" font-size="14" stroke="none" stroke-width="0" fill="#222222">Can customize</text></g><g><text text-anchor="middle" x="643.1666666666666" y="425.9" font-family="Arial" font-size="14" stroke="none" stroke-width="0" fill="#222222">Need to code</text></g><g><text text-anchor="end" x="147" y="409.4" font-family="Arial" font-size="14" stroke="none" stroke-width="0" fill="#444444">0,0</text></g><g><text text-anchor="end" x="147" y="332.4" font-family="Arial" font-size="14" stroke="none" stroke-width="0" fill="#444444">2,5</text></g><g><text text-anchor="end" x="147" y="255.4" font-family="Arial" font-size="14" stroke="none" stroke-width="0" fill="#444444">5,0</text></g><g><text text-anchor="end" x="147" y="178.4" font-family="Arial" font-size="14" stroke="none" stroke-width="0" fill="#444444">7,5</text></g>
    <g><text text-anchor="end" x="147" y="101.4" font-family="Arial" font-size="14" stroke="none" stroke-width="0" fill="#444444">10,0</text></g>
</g></g><g><g><text text-anchor="middle" x="64.9" y="250.5" font-family="Arial" font-size="14" font-style="italic" transform="rotate(-90 64.9 250.5)" stroke="none" stroke-width="0" fill="#222222">Flexibity</text></g></g><g></g></svg>